<?xml version="1.0"?>
<svg xmlns="http://www.w3.org/2000/svg" xmlns:xlink="http://www.w3.org/1999/xlink" version="1.1" id="Capa_1" x="0px" y="0px" viewBox="0 0 480 480" style="enable-background:new 0 0 480 480;" xml:space="preserve" width="512px" height="512px" class=""><g><g>
	<g>
		<path d="M456,72H24C10.745,72,0,82.745,0,96v288c0,13.255,10.745,24,24,24h432c13.255,0,24-10.745,24-24V96    C480,82.745,469.255,72,456,72z M464,384c0,4.418-3.582,8-8,8H24c-4.418,0-8-3.582-8-8V96c0-4.418,3.582-8,8-8h432    c4.418,0,8,3.582,8,8V384z" data-original="#000000" class="active-path" data-old_color="#ffffff" fill="#ffffff"/>
	</g>
</g><g>
	<g>
		<rect x="40" y="136" width="16" height="240" data-original="#000000" class="active-path" data-old_color="#ffffff" fill="#ffffff"/>
	</g>
</g><g>
	<g>
		<rect x="64" y="136" width="16" height="240" data-original="#000000" class="active-path" data-old_color="#ffffff" fill="#ffffff"/>
	</g>
</g><g>
	<g>
		<polygon points="112,136 104,136 96,136 96,336 104,336 112,336 120,336 120,136   " data-original="#000000" class="active-path" data-old_color="#ffffff" fill="#ffffff"/>
	</g>
</g><g>
	<g>
		<rect x="128" y="136" width="16" height="200" data-original="#000000" class="active-path" data-old_color="#ffffff" fill="#ffffff"/>
	</g>
</g><g>
	<g>
		<rect x="160" y="136" width="16" height="200" data-original="#000000" class="active-path" data-old_color="#ffffff" fill="#ffffff"/>
	</g>
</g><g>
	<g>
		<rect x="224" y="136" width="16" height="240" data-original="#000000" class="active-path" data-old_color="#ffffff" fill="#ffffff"/>
	</g>
</g><g>
	<g>
		<rect x="384" y="136" width="16" height="200" data-original="#000000" class="active-path" data-old_color="#ffffff" fill="#ffffff"/>
	</g>
</g><g>
	<g>
		<rect x="424" y="136" width="16" height="240" data-original="#000000" class="active-path" data-old_color="#ffffff" fill="#ffffff"/>
	</g>
</g><g>
	<g>
		<rect x="320" y="136" width="16" height="200" data-original="#000000" class="active-path" data-old_color="#ffffff" fill="#ffffff"/>
	</g>
</g><g>
	<g>
		<rect x="296" y="136" width="16" height="200" data-original="#000000" class="active-path" data-old_color="#ffffff" fill="#ffffff"/>
	</g>
</g><g>
	<g>
		<polygon points="280,136 272,136 264,136 264,336 272,336 280,336 288,336 288,136   " data-original="#000000" class="active-path" data-old_color="#ffffff" fill="#ffffff"/>
	</g>
</g><g>
	<g>
		<polygon points="360,136 352,136 344,136 344,336 352,336 360,336 368,336 368,136   " data-original="#000000" class="active-path" data-old_color="#ffffff" fill="#ffffff"/>
	</g>
</g><g>
	<g>
		<polygon points="200,136 192,136 184,136 184,336 192,336 200,336 208,336 208,136   " data-original="#000000" class="active-path" data-old_color="#ffffff" fill="#ffffff"/>
	</g>
</g><g>
	<g>
		<rect x="96" y="360" width="16" height="16" data-original="#000000" class="active-path" data-old_color="#ffffff" fill="#ffffff"/>
	</g>
</g><g>
	<g>
		<rect x="128" y="360" width="16" height="16" data-original="#000000" class="active-path" data-old_color="#ffffff" fill="#ffffff"/>
	</g>
</g><g>
	<g>
		<rect x="160" y="360" width="16" height="16" data-original="#000000" class="active-path" data-old_color="#ffffff" fill="#ffffff"/>
	</g>
</g><g>
	<g>
		<rect x="192" y="360" width="16" height="16" data-original="#000000" class="active-path" data-old_color="#ffffff" fill="#ffffff"/>
	</g>
</g><g>
	<g>
		<rect x="264" y="360" width="16" height="16" data-original="#000000" class="active-path" data-old_color="#ffffff" fill="#ffffff"/>
	</g>
</g><g>
	<g>
		<rect x="296" y="360" width="16" height="16" data-original="#000000" class="active-path" data-old_color="#ffffff" fill="#ffffff"/>
	</g>
</g><g>
	<g>
		<rect x="328" y="360" width="16" height="16" data-original="#000000" class="active-path" data-old_color="#ffffff" fill="#ffffff"/>
	</g>
</g><g>
	<g>
		<rect x="360" y="360" width="16" height="16" data-original="#000000" class="active-path" data-old_color="#ffffff" fill="#ffffff"/>
	</g>
</g><g>
	<g>
		<rect x="392" y="360" width="16" height="16" data-original="#000000" class="active-path" data-old_color="#ffffff" fill="#ffffff"/>
	</g>
</g><g>
	<g>
		<rect x="40" y="104" width="64" height="16" data-original="#000000" class="active-path" data-old_color="#ffffff" fill="#ffffff"/>
	</g>
</g><g>
	<g>
		<rect x="120" y="104" width="32" height="16" data-original="#000000" class="active-path" data-old_color="#ffffff" fill="#ffffff"/>
	</g>
</g><g>
	<g>
		<rect x="168" y="104" width="32" height="16" data-original="#000000" class="active-path" data-old_color="#ffffff" fill="#ffffff"/>
	</g>
</g><g>
	<g>
		<rect x="216" y="104" width="152" height="16" data-original="#000000" class="active-path" data-old_color="#ffffff" fill="#ffffff"/>
	</g>
</g><g>
	<g>
		<rect x="384" y="104" width="56" height="16" data-original="#000000" class="active-path" data-old_color="#ffffff" fill="#ffffff"/>
	</g>
</g></g> </svg>
