<?xml version="1.0"?>
<svg xmlns="http://www.w3.org/2000/svg" xmlns:xlink="http://www.w3.org/1999/xlink" version="1.1" id="Capa_1" x="0px" y="0px" viewBox="0 0 480.01 480.01" style="enable-background:new 0 0 480.01 480.01;" xml:space="preserve" width="512px" height="512px" class=""><g><g>
	<g>
		<path d="M404.005,0h-320c-35.33,0.04-63.96,28.67-64,64v56c0.001,4.418,3.583,7.999,8.002,7.998c1.451,0,2.875-0.395,4.118-1.142    l35.88-21.528l35.88,21.528c2.789,1.676,6.316,1.496,8.92-0.456l19.2-14.4v360c0.003,3.07,1.762,5.868,4.528,7.2    c2.773,1.337,6.068,0.964,8.472-0.96l35-27.992l35,28c2.923,2.34,7.077,2.34,10,0l35-28l35,28c2.923,2.34,7.077,2.34,10,0l35-28    l35,28c3.184,2.547,7.774,2.292,10.656-0.592l26.936-26.936l34.4,27.528c3.445,2.766,8.481,2.215,11.247-1.231    c1.142-1.423,1.764-3.193,1.761-5.017V56C459.97,25.087,434.918,0.035,404.005,0z M132.005,92l-24.496,18.4L72.125,89.176    c-2.535-1.523-5.705-1.523-8.24,0l-27.88,16.696V64c0-26.51,21.49-48,48-48s48,21.49,48,48V92z M444.005,455.352l-27-21.6    c-3.184-2.547-7.774-2.292-10.656,0.592l-26.936,26.936l-34.4-27.528c-2.923-2.34-7.077-2.34-10,0l-35.008,28l-35-28    c-2.923-2.34-7.077-2.34-10,0l-35,28l-35-28c-2.923-2.34-7.077-2.34-10,0l-27,21.6V64c0.005-18.379-7.906-35.869-21.712-48    h277.712c22.08,0.026,39.974,17.92,40,40V455.352z" data-original="#000000" class="active-path" data-old_color="#ffffff" fill="#ffffff"/>
	</g>
</g><g>
	<g>
		<rect x="308.005" y="384" width="112" height="16" data-original="#000000" class="active-path" data-old_color="#ffffff" fill="#ffffff"/>
	</g>
</g><g>
	<g>
		<rect x="308.005" y="352" width="112" height="16" data-original="#000000" class="active-path" data-old_color="#ffffff" fill="#ffffff"/>
	</g>
</g><g>
	<g>
		<rect x="164.005" y="64" width="168" height="16" data-original="#000000" class="active-path" data-old_color="#ffffff" fill="#ffffff"/>
	</g>
</g><g>
	<g>
		<rect x="164.005" y="96" width="168" height="16" data-original="#000000" class="active-path" data-old_color="#ffffff" fill="#ffffff"/>
	</g>
</g><g>
	<g>
		<rect x="164.005" y="128" width="96" height="16" data-original="#000000" class="active-path" data-old_color="#ffffff" fill="#ffffff"/>
	</g>
</g><g>
	<g>
		<rect x="396.005" y="128" width="32" height="16" data-original="#000000" class="active-path" data-old_color="#ffffff" fill="#ffffff"/>
	</g>
</g><g>
	<g>
		<rect x="396.005" y="64" width="32" height="16" data-original="#000000" class="active-path" data-old_color="#ffffff" fill="#ffffff"/>
	</g>
</g><g>
	<g>
		<rect x="396.005" y="96" width="32" height="16" data-original="#000000" class="active-path" data-old_color="#ffffff" fill="#ffffff"/>
	</g>
</g><g>
	<g>
		<rect x="164.005" y="192" width="168" height="16" data-original="#000000" class="active-path" data-old_color="#ffffff" fill="#ffffff"/>
	</g>
</g><g>
	<g>
		<rect x="164.005" y="224" width="168" height="16" data-original="#000000" class="active-path" data-old_color="#ffffff" fill="#ffffff"/>
	</g>
</g><g>
	<g>
		<rect x="164.005" y="256" width="168" height="16" data-original="#000000" class="active-path" data-old_color="#ffffff" fill="#ffffff"/>
	</g>
</g><g>
	<g>
		<rect x="164.005" y="288" width="72" height="16" data-original="#000000" class="active-path" data-old_color="#ffffff" fill="#ffffff"/>
	</g>
</g><g>
	<g>
		<rect x="396.005" y="192" width="32" height="16" data-original="#000000" class="active-path" data-old_color="#ffffff" fill="#ffffff"/>
	</g>
</g><g>
	<g>
		<rect x="396.005" y="224" width="32" height="16" data-original="#000000" class="active-path" data-old_color="#ffffff" fill="#ffffff"/>
	</g>
</g><g>
	<g>
		<rect x="396.005" y="256" width="32" height="16" data-original="#000000" class="active-path" data-old_color="#ffffff" fill="#ffffff"/>
	</g>
</g></g> </svg>
