<?xml version="1.0" encoding="iso-8859-1"?>
<!-- Generator: Adobe Illustrator 19.0.0, SVG Export Plug-In . SVG Version: 6.00 Build 0)  -->
<svg xmlns="http://www.w3.org/2000/svg" xmlns:xlink="http://www.w3.org/1999/xlink" version="1.1" id="Capa_1" x="0px" y="0px" viewBox="0 0 480 480" style="enable-background:new 0 0 480 480;" xml:space="preserve" width="512px" height="512px">
<g>
	<g>
		<path d="M330.4,272c-4.418,0-8,3.582-8,8c0.003,19.591-15.876,35.474-35.467,35.477s-35.474-15.876-35.477-35.467    c0-0.003,0-0.007,0-0.01c0-4.418-3.582-8-8-8H208v-28.912c28.553-4.435,48.105-31.178,43.669-59.731    c-3.497-22.511-21.158-40.173-43.669-43.669V88c0-4.418-3.582-8-8-8H8c-4.418,0-8,3.582-8,8v384c0,4.418,3.582,8,8,8h384    c4.418,0,8-3.582,8-8V272H330.4z M16,96h176v51.08c0,4.418,3.582,8,8,8c20.052,0.298,36.067,16.795,35.769,36.847    c-0.292,19.633-16.136,35.477-35.769,35.769c-4.418,0-8,3.582-8,8V272h-28.912c-4.435-28.553-31.178-48.105-59.731-43.669    C80.846,231.827,63.185,249.489,59.688,272H16V96z M192,464H16V288h51.08c4.418,0,8-3.582,8-8    c0.516-20.052,17.189-35.89,37.242-35.374c19.327,0.497,34.877,16.047,35.374,35.374c0,4.418,3.582,8,8,8H192v28.072    c-28.096,3.901-47.71,29.839-43.809,57.935c3.16,22.758,21.051,40.649,43.809,43.809V464z M384,464H208v-53.6c0-4.418-3.582-8-8-8    c-19.591-0.003-35.47-15.886-35.467-35.477c0.003-19.587,15.88-35.464,35.467-35.467c4.418,0,8-3.582,8-8V288h28.088    c4.413,28.087,30.76,47.278,58.847,42.865c22.078-3.469,39.396-20.787,42.865-42.865H384V464z" fill="#FFFFFF"/>
	</g>
</g>
<g>
	<g>
		<path d="M472,0H280c-4.418,0-8,3.582-8,8v59.08c0,4.418,3.582,8,8,8c20.052,0.516,35.89,17.189,35.374,37.242    c-0.497,19.327-16.047,34.877-35.374,35.374c-4.418,0-8,3.582-8,8V200c0,4.418,3.582,8,8,8h36.072    c3.901,28.096,29.839,47.71,57.935,43.809c22.758-3.16,40.649-21.051,43.809-43.809H472c4.418,0,8-3.582,8-8V8    C480,3.582,476.418,0,472,0z M464,192h-53.6c-4.418,0-8,3.582-8,8c0.416,19.591-15.128,35.809-34.719,36.225    s-35.809-15.128-36.225-34.719c-0.011-0.502-0.011-1.005,0-1.507c0-4.418-3.582-8-8-8H288v-28.936    c28.54-4.952,47.662-32.102,42.71-60.642c-3.787-21.828-20.882-38.923-42.71-42.71V16h176V192z" fill="#FFFFFF"/>
	</g>
</g>
<g>
	<g>
		<rect x="40" y="112" width="64" height="16" fill="#FFFFFF"/>
	</g>
</g>
<g>
	<g>
		<rect x="40" y="144" width="64" height="16" fill="#FFFFFF"/>
	</g>
</g>
<g>
	<g>
		<rect x="40" y="176" width="32" height="16" fill="#FFFFFF"/>
	</g>
</g>
<g>
	<g>
		<rect x="256" y="360" width="72" height="16" fill="#FFFFFF"/>
	</g>
</g>
<g>
	<g>
		<rect x="256" y="392" width="72" height="16" fill="#FFFFFF"/>
	</g>
</g>
<g>
	<g>
		<rect x="256" y="424" width="40" height="16" fill="#FFFFFF"/>
	</g>
</g>
<g>
</g>
<g>
</g>
<g>
</g>
<g>
</g>
<g>
</g>
<g>
</g>
<g>
</g>
<g>
</g>
<g>
</g>
<g>
</g>
<g>
</g>
<g>
</g>
<g>
</g>
<g>
</g>
<g>
</g>
</svg>
