<?xml version="1.0" encoding="iso-8859-1"?>
<!-- Generator: Adobe Illustrator 19.0.0, SVG Export Plug-In . SVG Version: 6.00 Build 0)  -->
<svg xmlns="http://www.w3.org/2000/svg" xmlns:xlink="http://www.w3.org/1999/xlink" version="1.1" id="Capa_1" x="0px" y="0px" viewBox="0 0 480 480" style="enable-background:new 0 0 480 480;" xml:space="preserve" width="512px" height="512px">
<g>
	<g>
		<path d="M421.656,154.344l-152-152C268.156,0.844,266.122,0,264,0H64c-4.418,0-8,3.582-8,8v464c0,4.418,3.582,8,8,8h352    c4.418,0,8-3.582,8-8V160C424,157.878,423.156,155.844,421.656,154.344z M272,35.312L396.688,160H272V35.312z M408,464H72V16h184    v152c0,4.418,3.582,8,8,8h144V464z" fill="#FFFFFF"/>
	</g>
</g>
<g>
	<g>
		<path d="M243.312,272l-34.88-34.88c27.863-25.224,31.515-67.685,8.368-97.296c-24.398-31.4-69.631-37.077-101.031-12.679    c-31.4,24.398-37.077,69.631-12.679,101.031c13.652,17.57,34.66,27.841,56.91,27.824c12.392,0.002,24.572-3.218,35.344-9.344    l39,39c1.5,1.5,3.534,2.344,5.656,2.344h64v-16H243.312z M215.344,176H194.4c-0.56-2.331-1.364-4.597-2.4-6.76l16.552-12.872    C212.044,162.421,214.349,169.084,215.344,176z M168,128.632c11.586,1.657,22.349,6.942,30.744,15.096l-16.488,12.824    c-4.147-3.417-9.025-5.834-14.256-7.064V128.632z M170.971,168.022c1.634,1.143,3.079,2.534,4.285,4.122    c2.683,3.372,4.154,7.547,4.176,11.856c0.055,10.732-8.6,19.477-19.331,19.532c-10.732,0.055-19.477-8.6-19.532-19.331    c-0.021-4.11,1.261-8.121,3.663-11.456C150.312,164.056,162.283,161.942,170.971,168.022z M197.12,225.808l-7.464-7.464    l-11.312,11.312l5.12,5.12c-27.998,13.014-61.245,0.867-74.259-27.131c-8.506-18.299-6.49-39.762,5.275-56.157    c8.89-12.389,22.432-20.633,37.52-22.84v20.872c-8.387,1.97-15.777,6.913-20.8,13.912l6.512,4.656l-6.512-4.648    c-11.409,15.86-7.8,37.967,8.06,49.376c15.86,11.409,37.967,7.8,49.376-8.06c2.752-3.826,4.712-8.162,5.764-12.756h20.96    C213.471,205.072,207.008,217.051,197.12,225.808z" fill="#FFFFFF"/>
	</g>
</g>
<g>
	<g>
		<rect x="88" y="272" width="104" height="16" fill="#FFFFFF"/>
	</g>
</g>
<g>
	<g>
		<rect x="88" y="304" width="104" height="16" fill="#FFFFFF"/>
	</g>
</g>
<g>
	<g>
		<rect x="256" y="192" width="136" height="16" fill="#FFFFFF"/>
	</g>
</g>
<g>
	<g>
		<rect x="256" y="224" width="136" height="16" fill="#FFFFFF"/>
	</g>
</g>
<g>
	<g>
		<rect x="88" y="336" width="56" height="16" fill="#FFFFFF"/>
	</g>
</g>
<g>
	<g>
		<path d="M240,392h-24c-4.418,0-8,3.582-8,8v40c0,4.418,3.582,8,8,8h24c4.418,0,8-3.582,8-8v-40C248,395.582,244.418,392,240,392z     M232,432h-8v-24h8V432z" fill="#FFFFFF"/>
	</g>
</g>
<g>
	<g>
		<path d="M288,360h-24c-4.418,0-8,3.582-8,8v72c0,4.418,3.582,8,8,8h24c4.418,0,8-3.582,8-8v-72C296,363.582,292.418,360,288,360z     M280,432h-8v-56h8V432z" fill="#FFFFFF"/>
	</g>
</g>
<g>
	<g>
		<path d="M336,320h-24c-4.418,0-8,3.582-8,8v112c0,4.418,3.582,8,8,8h24c4.418,0,8-3.582,8-8V328C344,323.582,340.418,320,336,320z     M328,432h-8v-96h8V432z" fill="#FFFFFF"/>
	</g>
</g>
<g>
	<g>
		<path d="M384,280h-24c-4.418,0-8,3.582-8,8v152c0,4.418,3.582,8,8,8h24c4.418,0,8-3.582,8-8V288C392,283.582,388.418,280,384,280z     M376,432h-8V296h8V432z" fill="#FFFFFF"/>
	</g>
</g>
<g>
	<g>
		<rect x="88" y="32" width="96" height="16" fill="#FFFFFF"/>
	</g>
</g>
<g>
	<g>
		<rect x="88" y="56" width="96" height="16" fill="#FFFFFF"/>
	</g>
</g>
<g>
	<g>
		<rect x="88" y="80" width="56" height="16" fill="#FFFFFF"/>
	</g>
</g>
<g>
	<g>
		<path d="M160,360c-2.377-0.002-4.631,1.054-6.152,2.88L133.6,387.2c-4.239-2.065-8.885-3.159-13.6-3.2    c-17.792-0.12-32.312,14.206-32.432,31.998c-0.12,17.792,14.206,32.312,31.998,32.432c17.792,0.12,32.312-14.206,32.432-31.998    c0.046-6.83-2.08-13.497-6.07-19.04L163.752,376H200v-16H160z M120,432c-8.837,0-16-7.163-16-16s7.163-16,16-16    c0.902,0.013,1.802,0.104,2.688,0.272l-8.8,10.608l12.304,10.24l8.8-10.592c0.653,1.751,0.994,3.603,1.008,5.472    C136,424.837,128.837,432,120,432z" fill="#FFFFFF"/>
	</g>
</g>
<g>
</g>
<g>
</g>
<g>
</g>
<g>
</g>
<g>
</g>
<g>
</g>
<g>
</g>
<g>
</g>
<g>
</g>
<g>
</g>
<g>
</g>
<g>
</g>
<g>
</g>
<g>
</g>
<g>
</g>
</svg>
